<svg width="731" height="1080" viewBox="0 0 731 1080" fill="none" xmlns="http://www.w3.org/2000/svg">
<path fill-rule="evenodd" clip-rule="evenodd" d="M0 1080L4.72083e-05 0L1.00005 4.37121e-08L1 1080H0Z" fill="url(#paint0_linear_513_1371)"/>
<path fill-rule="evenodd" clip-rule="evenodd" d="M144 1080L144 0L145 4.37121e-08L145 1080H144Z" fill="url(#paint1_linear_513_1371)"/>
<path fill-rule="evenodd" clip-rule="evenodd" d="M288 1080L288 0L289 4.37121e-08L289 1080H288Z" fill="url(#paint2_linear_513_1371)"/>
<path fill-rule="evenodd" clip-rule="evenodd" d="M432 1080L432 0L433 4.37121e-08L433 1080H432Z" fill="url(#paint3_linear_513_1371)"/>
<path fill-rule="evenodd" clip-rule="evenodd" d="M576 1080L576 0L577 4.37121e-08L577 1080H576Z" fill="url(#paint4_linear_513_1371)"/>
<path fill-rule="evenodd" clip-rule="evenodd" d="M720 1080L720 0L721 4.37121e-08L721 1080H720Z" fill="url(#paint5_linear_513_1371)"/>
<path fill-rule="evenodd" clip-rule="evenodd" d="M10 1080L10 0L11 4.37121e-08L11 1080H10Z" fill="url(#paint6_linear_513_1371)"/>
<path fill-rule="evenodd" clip-rule="evenodd" d="M154 1080L154 0L155 4.37121e-08L155 1080H154Z" fill="url(#paint7_linear_513_1371)"/>
<path fill-rule="evenodd" clip-rule="evenodd" d="M298 1080L298 0L299 4.37121e-08L299 1080H298Z" fill="url(#paint8_linear_513_1371)"/>
<path fill-rule="evenodd" clip-rule="evenodd" d="M442 1080L442 0L443 4.37121e-08L443 1080H442Z" fill="url(#paint9_linear_513_1371)"/>
<path fill-rule="evenodd" clip-rule="evenodd" d="M586 1080L586 0L587 4.37121e-08L587 1080H586Z" fill="url(#paint10_linear_513_1371)"/>
<path fill-rule="evenodd" clip-rule="evenodd" d="M730 1080L730 0L731 4.37121e-08L731 1080H730Z" fill="url(#paint11_linear_513_1371)"/>
<defs>
<linearGradient id="paint0_linear_513_1371" x1="365.5" y1="0" x2="365.5" y2="1080" gradientUnits="userSpaceOnUse">
<stop offset="0.568506" stop-color="#202020"/>
<stop offset="0.894221" stop-color="#202020" stop-opacity="0"/>
</linearGradient>
<linearGradient id="paint1_linear_513_1371" x1="365.5" y1="0" x2="365.5" y2="1080" gradientUnits="userSpaceOnUse">
<stop offset="0.568506" stop-color="#202020"/>
<stop offset="0.894221" stop-color="#202020" stop-opacity="0"/>
</linearGradient>
<linearGradient id="paint2_linear_513_1371" x1="365.5" y1="0" x2="365.5" y2="1080" gradientUnits="userSpaceOnUse">
<stop offset="0.568506" stop-color="#202020"/>
<stop offset="0.894221" stop-color="#202020" stop-opacity="0"/>
</linearGradient>
<linearGradient id="paint3_linear_513_1371" x1="365.5" y1="0" x2="365.5" y2="1080" gradientUnits="userSpaceOnUse">
<stop offset="0.568506" stop-color="#202020"/>
<stop offset="0.894221" stop-color="#202020" stop-opacity="0"/>
</linearGradient>
<linearGradient id="paint4_linear_513_1371" x1="365.5" y1="0" x2="365.5" y2="1080" gradientUnits="userSpaceOnUse">
<stop offset="0.568506" stop-color="#202020"/>
<stop offset="0.894221" stop-color="#202020" stop-opacity="0"/>
</linearGradient>
<linearGradient id="paint5_linear_513_1371" x1="365.5" y1="0" x2="365.5" y2="1080" gradientUnits="userSpaceOnUse">
<stop offset="0.568506" stop-color="#202020"/>
<stop offset="0.894221" stop-color="#202020" stop-opacity="0"/>
</linearGradient>
<linearGradient id="paint6_linear_513_1371" x1="365.5" y1="0" x2="365.5" y2="1080" gradientUnits="userSpaceOnUse">
<stop offset="0.568506" stop-color="#202020"/>
<stop offset="0.894221" stop-color="#202020" stop-opacity="0"/>
</linearGradient>
<linearGradient id="paint7_linear_513_1371" x1="365.5" y1="0" x2="365.5" y2="1080" gradientUnits="userSpaceOnUse">
<stop offset="0.568506" stop-color="#202020"/>
<stop offset="0.894221" stop-color="#202020" stop-opacity="0"/>
</linearGradient>
<linearGradient id="paint8_linear_513_1371" x1="365.5" y1="0" x2="365.5" y2="1080" gradientUnits="userSpaceOnUse">
<stop offset="0.568506" stop-color="#202020"/>
<stop offset="0.894221" stop-color="#202020" stop-opacity="0"/>
</linearGradient>
<linearGradient id="paint9_linear_513_1371" x1="365.5" y1="0" x2="365.5" y2="1080" gradientUnits="userSpaceOnUse">
<stop offset="0.568506" stop-color="#202020"/>
<stop offset="0.894221" stop-color="#202020" stop-opacity="0"/>
</linearGradient>
<linearGradient id="paint10_linear_513_1371" x1="365.5" y1="0" x2="365.5" y2="1080" gradientUnits="userSpaceOnUse">
<stop offset="0.568506" stop-color="#202020"/>
<stop offset="0.894221" stop-color="#202020" stop-opacity="0"/>
</linearGradient>
<linearGradient id="paint11_linear_513_1371" x1="365.5" y1="0" x2="365.5" y2="1080" gradientUnits="userSpaceOnUse">
<stop offset="0.568506" stop-color="#202020"/>
<stop offset="0.894221" stop-color="#202020" stop-opacity="0"/>
</linearGradient>
</defs>
</svg>
