<svg xmlns="http://www.w3.org/2000/svg" version="1.1" xmlns:xlink="http://www.w3.org/1999/xlink" xmlns:svgjs="http://svgjs.com/svgjs" width="384" height="188"><svg width="384" height="188" viewBox="0 0 384 188" fill="none" xmlns="http://www.w3.org/2000/svg">
<g filter="url(#filter0_d_611_1557)">
<path d="M46.4958 13.4264C60.7298 4.16616 78.9565 2.29854 88.6532 5.35936C114.58 13.5561 94.2275 69.1695 82.8196 97.6506C80.8232 102.683 77.8157 109.401 76.3638 113.214C75.3613 115.756 73.6328 120.079 71.1784 126.184L104.572 95.2902C102.239 87.716 100.891 78.4557 106.491 70.6481C112.973 61.5953 125.807 61.2581 129.825 67.5354C133.844 73.8126 122.514 88.8573 119.169 92.2034C117.458 93.9414 119.74 94.1748 124.899 98.5326C128.215 101.239 131.334 104.177 134.233 107.326C137.406 111.162 139.453 115.805 140.144 120.736C144.987 114.995 149.431 108.928 153.445 102.579C155.752 95.6015 158.397 80.6346 170.194 69.7921C180.253 60.5318 190.08 60.7912 195.887 64.6042C197.575 65.8049 198.934 67.4102 199.84 69.2729C200.746 71.1355 201.17 73.196 201.073 75.2652L200.399 75.2652C195.594 75.2201 190.885 76.6012 186.865 79.2339C178.439 85.6408 171.309 98.9476 168.56 111.424C167.264 116.612 166.357 126.988 171.749 129.582C177.142 132.176 187.15 127.766 193.295 120.736C199.439 113.707 200.269 108.623 202.81 108.389C204.132 108.389 206.025 109.453 206.492 112.125C206.721 114.755 206.403 117.405 205.558 119.906C202.81 129.893 190.832 138.479 185.05 140.658C176.961 143.796 164.931 144.73 158.76 137.519C152.589 130.308 151.708 119.102 151.111 115.912C151.111 115.912 147.741 120.866 143.878 125.613L143.022 126.651C142.296 127.507 141.544 128.363 140.818 129.244C140.844 129.564 140.844 129.885 140.818 130.204C140.818 143.174 122.669 173.263 99.5944 175.831C80.7973 177.906 78.5416 160.268 80.5639 155.547C80.7314 155.118 81.029 154.752 81.415 154.5C81.801 154.249 82.2559 154.125 82.7159 154.146C84.1257 154.475 85.445 155.113 86.579 156.014C88.1846 156.817 90.027 157.011 91.7644 156.558C94.3571 155.884 116.966 148.517 121.71 127.117C124.847 112.747 111.832 105.406 108.436 101.697C100.813 108.986 88.705 119.362 76.6749 129.634C70.1294 135.235 64.0589 141.369 58.526 147.972C55.5184 151.786 38.6399 171.318 29.4099 173.522C13.4388 177.361 4.494 165.767 4.02731 147.843C3.84582 140.891 4.5977 127.558 5.557 113.863L5.71257 111.71C5.71257 110.62 5.89406 109.531 5.97184 108.441L6.1274 106.288C7.13855 93.0076 8.25342 80.3493 8.7201 74.0201L8.7201 73.0344C9.21272 70.8556 9.21272 69.6364 9.21272 69.6364C10.6906 69.8439 30.6544 72.5675 30.5766 84.8108C29.9308 92.7913 28.8576 100.731 27.3617 108.597C26.869 111.502 26.2986 114.511 25.7023 117.546L25.3393 119.388L25.1319 120.295L24.7689 122.137C24.7689 122.76 24.5097 123.356 24.406 123.979L23.8874 125.924C20.1799 144.082 16.9908 161.565 24.4319 163.51C38.7177 167.193 70.8932 119.673 83.9085 79.3636C96.9239 39.0542 97.961 18.718 84.9197 15.735C77.9972 14.1268 55.5184 17.9658 45.018 37.2644C38.3288 49.5855 44.0587 63.2035 43.7475 65.9271C43.4364 68.6507 37.5251 71.115 31.3544 65.9271C28.4039 63.0685 26.2224 59.5109 25.0123 55.5841C23.8022 51.6573 23.6025 47.4884 24.4319 43.4639C26.7135 31.7394 32.2878 22.6867 46.4958 13.4264ZM285.699 44.0605C288.747 43.0699 292.05 43.2118 295.003 44.46C297.955 45.7082 300.359 47.9791 301.773 50.8565C303.511 54.1767 303.925 60.1168 303.018 68.5989L307.789 68.5989C311.914 68.3861 316.05 68.5076 320.156 68.962C326.378 70.1033 331.667 71.5559 333.69 78.5076C335.712 85.4593 332.497 93.2151 329.152 106.418C325.626 120.218 322.256 139.153 327.519 148.362C332.782 157.57 340.171 163.484 359.487 149.633C365.891 145.015 369.988 147.039 370.947 147.713C373.54 149.114 367.058 146.831 361.354 152.901C355.65 158.971 346.161 168.724 331.901 168.724C306.777 168.724 299.596 148.543 300.555 129.037C301.255 114.485 305.896 103.279 310.641 90.8027C313.233 83.7992 313.233 80.6605 311.678 80.2715C307.789 79.4414 302.888 78.8189 301.307 78.6373C301.022 78.6373 293.321 131.242 264.05 131.242C252.797 131.242 252.434 119.439 252.434 119.439C250.778 124.127 247.693 128.176 243.613 131.015C239.533 133.854 234.665 135.34 229.696 135.262C211.859 135.262 208.644 112.358 210.355 96.9503C212.066 81.5425 221.4 65.8234 230.319 59.7536C239.237 53.6839 249.09 52.9576 254.016 55.4477C258.942 57.9379 258.864 64.5264 258.864 65.4084C253.26 66.1914 247.925 68.3085 243.308 71.5819C237.761 75.9216 233.319 81.5123 230.344 87.8976C223.318 103.15 222.903 120.477 229.774 122.76C236.645 125.042 247.197 117.312 250.282 107.326C252.235 100.725 253.316 93.897 253.497 87.0156C254.583 85.9432 255.911 85.1477 257.368 84.6963C258.826 84.2449 260.37 84.1507 261.872 84.4217C267.239 85.2777 269.287 91.1399 269.831 94.1489C270.28 99.2722 270.079 104.432 269.235 109.505C268.768 113.11 268.535 115.652 268.405 117.287C268.094 121.878 272.58 120.918 274.472 120.399C281.317 118.402 286.891 107.637 290.625 97.2356C292.873 90.6097 294.752 83.8638 296.251 77.0291C296.484 76.8994 284.117 75.1096 279.45 68.0282C276.67 63.9045 275.533 58.8895 276.261 53.9692C276.649 51.5568 277.758 49.3187 279.443 47.5498C281.128 45.7809 283.309 44.5643 285.699 44.0605ZM119.999 68.0801C113.984 67.9504 109.421 76.8475 110.536 82.5022C111.547 87.4306 114.191 84.292 117.277 80.2455C118.907 77.9061 120.322 75.423 121.503 72.8269C121.503 72.6194 121.684 72.386 121.788 72.1525L121.969 71.6856C122.618 69.9736 123.032 68.1579 119.999 68.0801ZM297.936 55.8887C297.921 54.8735 297.686 53.8737 297.248 52.9579C296.81 52.0422 296.178 51.2324 295.397 50.5841C294.616 49.9358 293.704 49.4645 292.724 49.2025C291.743 48.9406 290.718 48.8943 289.717 49.0667C288.749 49.1331 287.806 49.4081 286.953 49.8729C286.1 50.3376 285.358 50.9812 284.777 51.7596C284.196 52.538 283.79 53.4327 283.586 54.3827C283.383 55.3326 283.387 56.3153 283.599 57.2635C284.013 61.725 287.695 65.0452 294.644 67.1722C295.499 67.4316 296.64 67.7169 297.625 67.9244C298.124 63.9325 298.228 59.9011 297.936 55.8887V55.8887Z" fill="black"></path>
</g>
<defs>
<filter id="SvgjsFilter1000" x="0" y="0" width="383.535" height="188" filterUnits="userSpaceOnUse" color-interpolation-filters="sRGB">
<feFlood flood-opacity="0" result="BackgroundImageFix"></feFlood>
<feColorMatrix in="SourceAlpha" type="matrix" values="0 0 0 0 0 0 0 0 0 0 0 0 0 0 0 0 0 0 127 0" result="hardAlpha"></feColorMatrix>
<feOffset dx="4" dy="4"></feOffset>
<feGaussianBlur stdDeviation="4"></feGaussianBlur>
<feComposite in2="hardAlpha" operator="out"></feComposite>
<feColorMatrix type="matrix" values="0 0 0 0 0 0 0 0 0 0 0 0 0 0 0 0 0 0 0.1 0"></feColorMatrix>
<feBlend mode="normal" in2="BackgroundImageFix" result="effect1_dropShadow_611_1557"></feBlend>
<feBlend mode="normal" in="SourceGraphic" in2="effect1_dropShadow_611_1557" result="shape"></feBlend>
</filter>
</defs>
</svg><style>@media (prefers-color-scheme: light) { :root { filter: none; } }
@media (prefers-color-scheme: dark) { :root { filter: contrast(0.8333333333333334) brightness(1.7); } }
</style></svg>