<svg width="20" height="20" viewBox="0 0 20 20" fill="none" xmlns="http://www.w3.org/2000/svg">
<path d="M17.1339 1.66699H6.42115C5.64285 1.66699 5.25138 2.25154 5.24566 2.84067C5.23984 3.43911 5.63205 4.04228 6.42115 4.04228H14.2884L2.01329 16.31C1.48915 16.835 1.61848 17.5028 2.01329 17.9244C2.42815 18.3674 3.13616 18.5386 3.68716 17.9866L15.9343 5.71896V13.5714C15.9343 14.3576 16.5341 14.7507 17.1339 14.7507C17.7337 14.7507 18.3335 14.3576 18.3335 13.5714V2.84067C18.3335 2.51961 18.1649 2.20855 17.9166 1.98742C17.6973 1.79214 17.416 1.66699 17.1339 1.66699Z" fill="url(#paint0_linear_417_1370)"/>
<defs>
<linearGradient id="paint0_linear_417_1370" x1="1.66699" y1="3.81071" x2="20.5224" y2="6.29416" gradientUnits="userSpaceOnUse">
<stop stop-color="#EA3400"/>
<stop offset="0.667383" stop-color="#FFB800"/>
</linearGradient>
</defs>
</svg>
