<svg width="24" height="24" viewBox="0 0 24 24" fill="none" xmlns="http://www.w3.org/2000/svg">
<path fill-rule="evenodd" clip-rule="evenodd" d="M10.968 2.25296C11.5902 1.91077 12.3664 1.90626 12.988 2.25688L13.0023 2.2652L19.6243 6.1964C20.9781 7.00559 20.9864 9.06644 19.598 9.86762L12.9919 13.7853C12.985 13.7894 12.978 13.7934 12.9709 13.7973C12.3488 14.1395 11.5726 14.144 10.951 13.7934L10.937 13.7853L4.32855 9.86617C2.94644 9.05609 2.94647 7.00408 4.32864 6.19406L10.9466 2.2652C10.9537 2.261 10.9608 2.25692 10.968 2.25296ZM11.6995 3.56266L5.08786 7.48776C4.69338 7.71824 4.69337 8.34207 5.08785 8.57254L5.09254 8.57528L11.6934 12.4899C11.849 12.575 12.0652 12.5796 12.2396 12.4875L18.8465 8.5693C19.0281 8.46529 19.1382 8.26713 19.1395 8.02988C19.1408 7.79135 19.0315 7.59001 18.8555 7.48443L12.2454 3.56027C12.0899 3.47528 11.8738 3.47073 11.6995 3.56266Z" fill="white"/>
<path d="M19.6185 10.8704C20.016 10.7539 20.4327 10.9817 20.5492 11.3792C20.8025 12.2435 20.5149 13.2989 19.6007 13.836L19.5988 13.8372L12.9824 17.765C12.9753 17.7692 12.9681 17.7733 12.9609 17.7773C12.3388 18.1195 11.5626 18.124 10.941 17.7734L10.9266 17.765L4.30714 13.8354C3.45401 13.3295 3.14794 12.3646 3.32614 11.533C3.41293 11.128 3.81162 10.87 4.21664 10.9568C4.62166 11.0436 4.87963 11.4423 4.79284 11.8473C4.73108 12.1355 4.84537 12.4107 5.07185 12.5449L11.6835 16.47C11.8391 16.555 12.0552 16.5595 12.2295 16.4676L18.8402 12.5431C19.0844 12.3999 19.1962 12.0962 19.1098 11.8011C18.9933 11.4036 19.221 10.9869 19.6185 10.8704Z" fill="white"/>
<path d="M20.5778 15.4412C20.479 15.039 20.0728 14.793 19.6706 14.8918C19.2683 14.9906 19.0223 15.3967 19.1211 15.799C19.1919 16.0872 19.0796 16.3746 18.8448 16.5163L18.8436 16.517L12.2394 20.4376C12.0651 20.5295 11.849 20.525 11.6935 20.44L5.08232 16.5152L5.07972 16.5136C4.863 16.3862 4.75148 16.1342 4.79106 15.8721C4.85288 15.4625 4.57097 15.0803 4.1614 15.0185C3.75182 14.9567 3.36968 15.2386 3.30786 15.6482C3.1875 16.4455 3.51552 17.333 4.31776 17.8057L4.31919 17.8065L10.9366 21.7351L10.951 21.7434C11.5725 22.094 12.3487 22.0895 12.9709 21.7473C12.9751 21.745 12.9794 21.7426 12.9836 21.7402C12.9865 21.7385 12.9894 21.7368 12.9923 21.7351L19.6123 17.805L19.6153 17.8032C20.4797 17.2846 20.7869 16.2925 20.5778 15.4412Z" fill="white"/>
</svg>
