<svg width="384" height="189" viewBox="0 0 384 189" fill="none" xmlns="http://www.w3.org/2000/svg">
<g filter="url(#filter0_d_414_1347)">
<path d="M46.5494 13.4383C60.8014 4.16637 79.0512 2.29639 88.7602 5.36108C114.72 13.5682 94.3415 69.252 82.9192 97.7691C80.9203 102.808 77.9089 109.534 76.4552 113.352C75.4514 115.898 73.7207 120.226 71.2632 126.338L104.699 95.4057C102.363 87.8219 101.013 78.5499 106.621 70.7324C113.11 61.6682 125.961 61.3305 129.984 67.6157C134.008 73.9009 122.664 88.9647 119.315 92.315C117.602 94.0551 119.886 94.2889 125.052 98.6522C128.372 101.362 131.495 104.304 134.398 107.457C137.575 111.298 139.624 115.946 140.316 120.884C145.165 115.135 149.614 109.061 153.634 102.704C155.944 95.7173 158.592 80.7316 170.404 69.8753C180.476 60.6033 190.315 60.863 196.13 64.6809C197.819 65.8831 199.18 67.4904 200.087 69.3555C200.994 71.2205 201.419 73.2835 201.322 75.3554L200.647 75.3554C195.837 75.3102 191.121 76.693 187.096 79.3291C178.659 85.7441 171.52 99.0677 168.768 111.56C167.47 116.755 166.562 127.143 171.961 129.741C177.361 132.338 187.382 127.923 193.534 120.884C199.687 113.846 200.517 108.755 203.061 108.522C204.385 108.522 206.28 109.586 206.748 112.261C206.977 114.895 206.659 117.548 205.813 120.053C203.061 130.052 191.068 138.649 185.279 140.831C177.179 143.973 165.134 144.908 158.956 137.688C152.777 130.468 151.895 119.248 151.297 116.053C151.297 116.053 147.923 121.014 144.055 125.767L143.198 126.806C142.471 127.663 141.718 128.52 140.991 129.403C141.017 129.723 141.017 130.044 140.991 130.364C140.991 143.35 122.819 173.477 99.7152 176.048C80.8943 178.126 78.6358 160.465 80.6607 155.738C80.8284 155.309 81.1264 154.942 81.5128 154.691C81.8993 154.439 82.3548 154.315 82.8153 154.336C84.2269 154.666 85.5479 155.304 86.6834 156.206C88.291 157.011 90.1357 157.204 91.8753 156.751C94.4713 156.076 117.108 148.7 121.859 127.273C125 112.885 111.968 105.535 108.568 101.821C100.935 109.119 88.8121 119.508 76.7667 129.792C70.2129 135.401 64.1348 141.542 58.5948 148.155C55.5835 151.973 38.6836 171.529 29.4419 173.737C13.4506 177.581 4.49449 165.971 4.02721 148.025C3.84549 141.064 4.59833 127.715 5.55884 114.002L5.7146 111.846C5.7146 110.755 5.89632 109.664 5.9742 108.573L6.12996 106.418C7.14239 93.1202 8.25866 80.4459 8.72594 74.1087L8.72594 73.1218C9.21918 70.9401 9.21918 69.7195 9.21918 69.7195C10.6989 69.9272 30.688 72.6543 30.6101 84.913C29.9635 92.9036 28.8889 100.854 27.3911 108.729C26.8978 111.638 26.3267 114.651 25.7296 117.69L25.3662 119.534L25.1585 120.443L24.7951 122.287C24.7951 122.91 24.5355 123.507 24.4317 124.131L23.9125 126.079C20.2002 144.259 17.0071 161.764 24.4576 163.712C38.7615 167.4 70.9777 119.819 84.0095 79.4589C97.0413 39.0986 98.0797 18.7366 85.0219 15.7498C78.0907 14.1396 55.5835 17.9834 45.0697 37.3065C38.3721 49.6432 44.1092 63.2784 43.7977 66.0055C43.4862 68.7325 37.5673 71.1999 31.3889 66.0055C28.4346 63.1433 26.2504 59.5812 25.0387 55.6494C23.8271 51.7176 23.6272 47.5435 24.4576 43.5138C26.7421 31.7745 32.3234 22.7103 46.5494 13.4383ZM286.055 44.1112C289.107 43.1194 292.415 43.2614 295.371 44.5112C298.327 45.7609 300.734 48.0347 302.15 50.9158C303.889 54.2402 304.305 60.1878 303.396 68.6806L308.173 68.6806C312.303 68.4676 316.445 68.5892 320.556 69.0442C326.786 70.187 332.082 71.6414 334.107 78.6019C336.132 85.5623 332.913 93.3279 329.564 106.548C326.033 120.365 322.658 139.324 327.928 148.544C333.198 157.764 340.597 163.686 359.937 149.817C366.349 145.194 370.45 147.22 371.411 147.895C374.007 149.297 367.517 147.012 361.806 153.089C356.095 159.167 346.593 168.932 332.315 168.932C307.16 168.932 299.969 148.726 300.93 129.195C301.631 114.625 306.278 103.405 311.028 90.9125C313.624 83.9001 313.624 80.7575 312.067 80.3679C308.173 79.5368 303.266 78.9135 301.683 78.7317C301.397 78.7317 293.687 131.403 264.379 131.403C253.112 131.403 252.749 119.586 252.749 119.586C251.09 124.279 248.001 128.334 243.916 131.176C239.831 134.019 234.957 135.506 229.982 135.428C212.121 135.428 208.902 112.495 210.616 97.0679C212.329 81.6406 221.675 65.9016 230.605 59.8242C239.535 53.7467 249.4 53.0195 254.332 55.5128C259.264 58.0061 259.187 64.603 259.187 65.486C253.575 66.27 248.234 68.3898 243.611 71.6674C238.057 76.0126 233.609 81.6104 230.631 88.0037C223.596 103.275 223.18 120.624 230.06 122.91C236.939 125.195 247.505 117.456 250.594 107.457C252.549 100.847 253.631 94.0108 253.813 87.1206C254.9 86.0469 256.229 85.2504 257.689 84.7984C259.148 84.3464 260.694 84.2521 262.198 84.5234C267.572 85.3805 269.622 91.2502 270.168 94.2629C270.616 99.3928 270.416 104.559 269.57 109.638C269.103 113.248 268.87 115.794 268.74 117.43C268.428 122.027 272.919 121.066 274.814 120.546C281.668 118.547 287.249 107.768 290.987 97.3536C293.239 90.7193 295.119 83.9648 296.621 77.1215C296.854 76.9916 284.471 75.1995 279.799 68.1092C277.015 63.9803 275.876 58.959 276.606 54.0324C276.994 51.617 278.105 49.376 279.792 47.6049C281.478 45.8337 283.662 44.6156 286.055 44.1112ZM120.146 68.1612C114.123 68.0313 109.554 76.9397 110.67 82.6015C111.683 87.5362 114.331 84.3936 117.42 80.342C119.053 77.9996 120.469 75.5133 121.651 72.914C121.651 72.7062 121.833 72.4725 121.937 72.2387L122.119 71.7712C122.768 70.0571 123.183 68.2391 120.146 68.1612ZM298.308 55.9544C298.293 54.9379 298.058 53.9368 297.619 53.0199C297.18 52.103 296.548 51.2921 295.766 50.643C294.984 49.9939 294.07 49.522 293.089 49.2597C292.107 48.9975 291.08 48.9511 290.079 49.1237C289.109 49.1902 288.165 49.4655 287.311 49.9309C286.457 50.3962 285.714 51.0407 285.132 51.82C284.55 52.5994 284.144 53.4953 283.94 54.4464C283.736 55.3976 283.741 56.3815 283.952 57.3309C284.368 61.798 288.054 65.1224 295.011 67.2521C295.868 67.5119 297.01 67.7975 297.997 68.0053C298.496 64.0083 298.6 59.9718 298.308 55.9544Z" fill="white"/>
</g>
<defs>
<filter id="filter0_d_414_1347" x="0" y="0" width="384" height="188.218" filterUnits="userSpaceOnUse" color-interpolation-filters="sRGB">
<feFlood flood-opacity="0" result="BackgroundImageFix"/>
<feColorMatrix in="SourceAlpha" type="matrix" values="0 0 0 0 0 0 0 0 0 0 0 0 0 0 0 0 0 0 127 0" result="hardAlpha"/>
<feOffset dx="4" dy="4"/>
<feGaussianBlur stdDeviation="4"/>
<feComposite in2="hardAlpha" operator="out"/>
<feColorMatrix type="matrix" values="0 0 0 0 0 0 0 0 0 0 0 0 0 0 0 0 0 0 0.1 0"/>
<feBlend mode="normal" in2="BackgroundImageFix" result="effect1_dropShadow_414_1347"/>
<feBlend mode="normal" in="SourceGraphic" in2="effect1_dropShadow_414_1347" result="shape"/>
</filter>
</defs>
</svg>
